<svg width="110" height="110" viewBox="0 0 110 110" fill="none" xmlns="http://www.w3.org/2000/svg">
<path d="M55 10.3125C46.1616 10.3125 37.5218 12.9334 30.1729 17.8437C22.8241 22.754 17.0964 29.7333 13.7141 37.8988C10.3318 46.0644 9.44687 55.0496 11.1711 63.7181C12.8954 72.3866 17.1515 80.3492 23.4012 86.5988C29.6508 92.8485 37.6134 97.1046 46.2819 98.8288C54.9504 100.553 63.9356 99.6682 72.1012 96.2859C80.2667 92.9036 87.246 87.1759 92.1563 79.827C97.0666 72.4782 99.6875 63.8384 99.6875 55C99.6727 43.1527 94.9598 31.7948 86.5825 23.4175C78.2052 15.0402 66.8473 10.3273 55 10.3125ZM47.1195 52.568C47.7645 53.213 48.1269 54.0878 48.1269 55C48.1269 55.9122 47.7645 56.787 47.1195 57.432C46.4745 58.077 45.5997 58.4394 44.6875 58.4394C43.7753 58.4394 42.9005 58.077 42.2555 57.432L37.8125 52.9848L33.3695 57.432C32.7245 58.077 31.8497 58.4394 30.9375 58.4394C30.0253 58.4394 29.1505 58.077 28.5055 57.432C27.8604 56.787 27.4981 55.9122 27.4981 55C27.4981 54.0878 27.8604 53.213 28.5055 52.568L32.9527 48.125L28.5055 43.682C27.8604 43.037 27.4981 42.1622 27.4981 41.25C27.4981 40.3378 27.8604 39.463 28.5055 38.818C29.1505 38.173 30.0253 37.8106 30.9375 37.8106C31.8497 37.8106 32.7245 38.173 33.3695 38.818L37.8125 43.2652L42.2555 38.818C42.9005 38.173 43.7753 37.8106 44.6875 37.8106C45.5997 37.8106 46.4745 38.173 47.1195 38.818C47.7645 39.463 48.1269 40.3378 48.1269 41.25C48.1269 42.1622 47.7645 43.037 47.1195 43.682L42.6723 48.125L47.1195 52.568ZM55 82.5C53.9802 82.5 52.9833 82.1976 52.1353 81.631C51.2874 81.0644 50.6265 80.2591 50.2362 79.317C49.846 78.3748 49.7439 77.338 49.9428 76.3378C50.1418 75.3376 50.6329 74.4189 51.354 73.6977C52.0751 72.9766 52.9938 72.4855 53.9941 72.2866C54.9943 72.0876 56.031 72.1897 56.9732 72.58C57.9154 72.9703 58.7207 73.6312 59.2873 74.4791C59.8538 75.327 60.1562 76.3239 60.1562 77.3438C60.1562 78.7113 59.613 80.0228 58.646 80.9898C57.679 81.9568 56.3675 82.5 55 82.5ZM81.4945 52.568C81.8139 52.8873 82.0672 53.2665 82.2401 53.6838C82.4129 54.1011 82.5019 54.5483 82.5019 55C82.5019 55.4517 82.4129 55.8989 82.2401 56.3162C82.0672 56.7335 81.8139 57.1127 81.4945 57.432C81.1751 57.7514 80.796 58.0048 80.3787 58.1776C79.9614 58.3504 79.5142 58.4394 79.0625 58.4394C78.6108 58.4394 78.1636 58.3504 77.7463 58.1776C77.329 58.0048 76.9498 57.7514 76.6305 57.432L72.1875 52.9848L67.7445 57.432C67.0995 58.077 66.2247 58.4394 65.3125 58.4394C64.4003 58.4394 63.5255 58.077 62.8805 57.432C62.2354 56.787 61.8731 55.9122 61.8731 55C61.8731 54.0878 62.2354 53.213 62.8805 52.568L67.3277 48.125L62.8805 43.682C62.2354 43.037 61.8731 42.1622 61.8731 41.25C61.8731 40.3378 62.2354 39.463 62.8805 38.818C63.5255 38.173 64.4003 37.8106 65.3125 37.8106C66.2247 37.8106 67.0995 38.173 67.7445 38.818L72.1875 43.2652L76.6305 38.818C76.9498 38.4986 77.329 38.2452 77.7463 38.0724C78.1636 37.8996 78.6108 37.8106 79.0625 37.8106C79.5142 37.8106 79.9614 37.8996 80.3787 38.0724C80.796 38.2452 81.1751 38.4986 81.4945 38.818C81.8139 39.1373 82.0672 39.5165 82.2401 39.9338C82.4129 40.3511 82.5019 40.7983 82.5019 41.25C82.5019 41.7017 82.4129 42.1489 82.2401 42.5662C82.0672 42.9835 81.8139 43.3627 81.4945 43.682L77.0473 48.125L81.4945 52.568Z" fill="#4E5F79"/>
</svg>
