<svg width="72" height="72" viewBox="0 0 72 72" fill="none" xmlns="http://www.w3.org/2000/svg">
<path d="M69.5559 35.0888C69.4575 34.8666 67.0753 29.5819 61.7794 24.2859C54.7228 17.2294 45.81 13.5 36 13.5C26.19 13.5 17.2772 17.2294 10.2206 24.2859C4.92469 29.5819 2.53125 34.875 2.44406 35.0888C2.31613 35.3765 2.25003 35.6879 2.25003 36.0028C2.25003 36.3177 2.31613 36.6291 2.44406 36.9169C2.5425 37.1391 4.92469 42.4209 10.2206 47.7169C17.2772 54.7706 26.19 58.5 36 58.5C45.81 58.5 54.7228 54.7706 61.7794 47.7169C67.0753 42.4209 69.4575 37.1391 69.5559 36.9169C69.6839 36.6291 69.75 36.3177 69.75 36.0028C69.75 35.6879 69.6839 35.3765 69.5559 35.0888ZM36 47.25C33.775 47.25 31.5999 46.5902 29.7498 45.354C27.8998 44.1179 26.4578 42.3609 25.6064 40.3052C24.7549 38.2495 24.5321 35.9875 24.9662 33.8052C25.4002 31.6229 26.4717 29.6184 28.045 28.045C29.6184 26.4717 31.6229 25.4002 33.8052 24.9662C35.9875 24.5321 38.2495 24.7549 40.3052 25.6064C42.3609 26.4578 44.1179 27.8998 45.354 29.7498C46.5902 31.5999 47.25 33.775 47.25 36C47.25 38.9837 46.0647 41.8452 43.955 43.955C41.8452 46.0647 38.9837 47.25 36 47.25Z" fill="#1A2238"/>
</svg>
