<svg width="24" height="24" viewBox="0 0 24 24" fill="none" xmlns="http://www.w3.org/2000/svg">
<path d="M23.0756 10.6744L21.5756 9.17442C21.2976 8.89664 20.9393 8.71324 20.5514 8.65016C20.1634 8.58707 19.7655 8.64749 19.4137 8.82286L15.1762 4.58536C15.3517 4.23372 15.4123 3.83584 15.3494 3.44791C15.2865 3.05998 15.1033 2.70163 14.8256 2.42349L13.3256 0.923486C12.974 0.571978 12.4972 0.374512 12 0.374512C11.5028 0.374512 11.026 0.571978 10.6744 0.923486L4.67437 6.92349C4.32287 7.2751 4.1254 7.75193 4.1254 8.24911C4.1254 8.74629 4.32287 9.22312 4.67437 9.57474L6.17437 11.0747C6.45154 11.3519 6.80861 11.5353 7.19538 11.599C7.58215 11.6627 7.97917 11.6036 8.33062 11.43L2.7525 17.0044C2.18982 17.5671 1.87372 18.3302 1.87372 19.126C1.87372 19.9217 2.18982 20.6849 2.7525 21.2475C3.31517 21.8102 4.07832 22.1263 4.87406 22.1263C5.6698 22.1263 6.43295 21.8102 6.99562 21.2475L12.5625 15.676C12.3904 16.027 12.3324 16.4229 12.3964 16.8085C12.4604 17.1941 12.6434 17.5501 12.9197 17.8266L14.4197 19.3266C14.5938 19.5008 14.8005 19.639 15.0281 19.7333C15.2556 19.8275 15.4995 19.8761 15.7458 19.8761C15.9921 19.8761 16.236 19.8275 16.4635 19.7333C16.691 19.639 16.8978 19.5008 17.0719 19.3266L23.0719 13.3266C23.2461 13.1525 23.3842 12.9458 23.4785 12.7182C23.5728 12.4907 23.6213 12.2468 23.6213 12.0005C23.6213 11.7542 23.5728 11.5103 23.4785 11.2828C23.3842 11.0553 23.2461 10.8485 23.0719 10.6744H23.0756ZM7.5 9.21942L6.52875 8.25005L12 2.77974L12.9694 3.75005L7.5 9.21942ZM5.40375 19.6566C5.26302 19.7972 5.0722 19.8762 4.87326 19.8761C4.67433 19.876 4.48357 19.7969 4.34297 19.6561C4.20236 19.5154 4.12342 19.3246 4.12351 19.1257C4.12359 18.9267 4.20271 18.736 4.34344 18.5954L9.92344 13.0154L10.9837 14.0766L5.40375 19.6566ZM14.0944 14.0044L9.99562 9.90567L13.6519 6.24942L17.7506 10.3482L14.0944 14.0044ZM15.7491 17.4732L14.7797 16.5L20.25 11.0307L21.2194 12L15.7491 17.4732Z" fill="#F43F5E"/>
</svg>
