<svg width="24" height="24" viewBox="0 0 24 24" fill="none" xmlns="http://www.w3.org/2000/svg">
<path d="M20.0484 11.762L9.54844 23.012C9.43717 23.1307 9.2903 23.21 9.12998 23.238C8.96966 23.2659 8.80461 23.241 8.65972 23.1669C8.51483 23.0928 8.39796 22.9736 8.32676 22.8273C8.25556 22.681 8.23388 22.5154 8.265 22.3557L9.63938 15.481L4.23657 13.4523C4.12053 13.4089 4.01706 13.3374 3.93539 13.2442C3.85372 13.1511 3.79639 13.0392 3.76854 12.9184C3.74068 12.7977 3.74316 12.672 3.77575 12.5525C3.80834 12.433 3.87004 12.3234 3.95532 12.2335L14.4553 0.983518C14.5666 0.864771 14.7135 0.785435 14.8738 0.757484C15.0341 0.729534 15.1992 0.754484 15.344 0.82857C15.4889 0.902656 15.6058 1.02186 15.677 1.16819C15.7482 1.31452 15.7699 1.48004 15.7388 1.63977L14.3606 8.52196L19.7634 10.5479C19.8786 10.5916 19.9813 10.663 20.0623 10.7558C20.1433 10.8485 20.2003 10.9599 20.2281 11.0799C20.2559 11.1999 20.2537 11.3249 20.2217 11.4438C20.1897 11.5628 20.1289 11.6721 20.0447 11.762H20.0484Z" fill="#BBDEFB"/>
</svg>
