<svg width="110" height="110" viewBox="0 0 110 110" fill="none" xmlns="http://www.w3.org/2000/svg">
<path d="M55 8.59375C45.8217 8.59375 36.8496 11.3154 29.2181 16.4146C21.5866 21.5138 15.6386 28.7615 12.1262 37.2411C8.61386 45.7207 7.69486 55.0515 9.48545 64.0534C11.276 73.0553 15.6958 81.3241 22.1858 87.8142C28.6759 94.3042 36.9447 98.724 45.9466 100.515C54.9485 102.305 64.2793 101.386 72.7589 97.8738C81.2386 94.3614 88.4862 88.4134 93.5854 80.7819C98.6846 73.1505 101.406 64.1783 101.406 55C101.393 42.6965 96.499 30.9008 87.7991 22.2009C79.0992 13.501 67.3035 8.6074 55 8.59375ZM91.0938 55C91.1037 60.6488 89.7787 66.22 87.2266 71.2594L60.1563 52.3145V19.2801C68.7415 20.5301 76.5907 24.8263 82.2706 31.3842C87.9505 37.9422 91.0822 46.3243 91.0938 55ZM49.8438 19.2801V52.3145L22.7735 71.2594C20.1852 66.1478 18.8521 60.4931 18.8845 54.7637C18.9169 49.0343 20.314 43.3951 22.96 38.3132C25.6059 33.2312 29.4246 28.8529 34.0998 25.5407C38.7749 22.2286 44.1719 20.078 49.8438 19.2672V19.2801ZM28.716 79.6984L49.8438 64.9043V90.7199C41.7551 89.5485 34.3049 85.662 28.716 79.6984ZM60.1563 90.7199V64.9043L81.284 79.6984C75.6952 85.662 68.245 89.5485 60.1563 90.7199Z" fill="#4E5F79"/>
</svg>
