<svg width="20" height="20" viewBox="0 0 20 20" fill="none" xmlns="http://www.w3.org/2000/svg">
<path d="M4.16663 14.4447V5.55582C4.16663 4.82285 4.16663 4.45596 4.32087 4.23909C4.45549 4.04981 4.66299 3.92554 4.89335 3.89582C5.1572 3.86179 5.4808 4.03438 6.12708 4.37906L14.4604 8.82351L14.4634 8.82485C15.1777 9.20576 15.5349 9.39631 15.6521 9.65027C15.7543 9.87182 15.7543 10.1276 15.6521 10.3491C15.5348 10.6034 15.1766 10.7948 14.4604 11.1768L6.12708 15.6212C5.48033 15.9661 5.15729 16.138 4.89335 16.104C4.66299 16.0743 4.45549 15.95 4.32087 15.7608C4.16663 15.5439 4.16663 15.1777 4.16663 14.4447Z" stroke="#0A0E21" stroke-width="2" stroke-linecap="round" stroke-linejoin="round"/>
</svg>
