<svg width="30" height="30" viewBox="0 0 30 30" fill="none" xmlns="http://www.w3.org/2000/svg">
<path d="M7.51408 17.3204C7.51725 17.3839 7.50748 17.4474 7.48535 17.507C7.46322 17.5666 7.4292 17.621 7.38535 17.6671C7.3415 17.7131 7.28875 17.7498 7.23029 17.7748C7.17184 17.7998 7.10891 17.8126 7.04533 17.8126H1.87501C1.66341 17.8129 1.45793 17.7416 1.29197 17.6103C1.12602 17.4791 1.00935 17.2955 0.96095 17.0895C0.930811 16.9485 0.9322 16.8026 0.965019 16.6622C0.997838 16.5218 1.06128 16.3904 1.15079 16.2774C1.97791 15.1805 3.07535 14.3168 4.33595 13.7708C3.7825 13.2662 3.35803 12.6363 3.09807 11.9339C2.83811 11.2315 2.75025 10.477 2.84183 9.73371C2.93341 8.99038 3.20177 8.27981 3.62443 7.66152C4.0471 7.04323 4.61177 6.53522 5.27114 6.18004C5.93051 5.82485 6.6654 5.63283 7.41424 5.62007C8.16308 5.6073 8.90409 5.77415 9.57518 6.10665C10.2463 6.43915 10.8279 6.92762 11.2714 7.53114C11.7149 8.13466 12.0074 8.83567 12.1242 9.57545C12.1393 9.67493 12.1215 9.77662 12.0735 9.86504C12.0255 9.95346 11.9499 10.0238 11.8582 10.0653C10.5579 10.6664 9.45665 11.627 8.68443 12.8336C7.91221 14.0402 7.50124 15.4425 7.50001 16.8751C7.50001 17.0251 7.50001 17.1727 7.51408 17.3204ZM28.8422 16.2762C28.017 15.1806 26.9221 14.3174 25.6641 13.7708C26.2175 13.2662 26.642 12.6363 26.902 11.9339C27.1619 11.2315 27.2498 10.477 27.1582 9.73371C27.0666 8.99038 26.7983 8.27981 26.3756 7.66152C25.9529 7.04323 25.3883 6.53522 24.7289 6.18004C24.0695 5.82485 23.3346 5.63283 22.5858 5.62007C21.8369 5.6073 21.0959 5.77415 20.4248 6.10665C19.7537 6.43915 19.1721 6.92762 18.7286 7.53114C18.2851 8.13466 17.9927 8.83567 17.8758 9.57545C17.8607 9.67493 17.8785 9.77662 17.9265 9.86504C17.9746 9.95346 18.0501 10.0238 18.1418 10.0653C19.4421 10.6664 20.5434 11.627 21.3156 12.8336C22.0878 14.0402 22.4988 15.4425 22.5 16.8751C22.5 17.0251 22.5 17.1727 22.486 17.3204C22.4828 17.3839 22.4925 17.4474 22.5147 17.507C22.5368 17.5666 22.5708 17.621 22.6147 17.6671C22.6585 17.7131 22.7113 17.7498 22.7697 17.7748C22.8282 17.7998 22.8911 17.8126 22.9547 17.8126H28.125C28.3366 17.8129 28.5421 17.7416 28.7081 17.6103C28.874 17.4791 28.9907 17.2955 29.0391 17.0895C29.0694 16.9483 29.068 16.802 29.035 16.6614C29.0019 16.5208 28.9381 16.3892 28.8481 16.2762H28.8422ZM18.4125 21.3364C19.346 20.6215 20.0319 19.6321 20.374 18.5072C20.7161 17.3823 20.6971 16.1785 20.3197 15.065C19.9423 13.9514 19.2254 12.9842 18.2699 12.2991C17.3144 11.614 16.1681 11.2456 14.9924 11.2456C13.8166 11.2456 12.6704 11.614 11.7149 12.2991C10.7593 12.9842 10.0425 13.9514 9.66507 15.065C9.28766 16.1785 9.26866 17.3823 9.61075 18.5072C9.95284 19.6321 10.6388 20.6215 11.5723 21.3364C9.91588 22.0541 8.53275 23.2832 7.6254 24.8438C7.54311 24.9863 7.49979 25.148 7.4998 25.3126C7.49981 25.4772 7.54315 25.6389 7.62546 25.7814C7.70776 25.9239 7.82614 26.0423 7.96869 26.1245C8.11124 26.2068 8.27293 26.2501 8.43751 26.2501H21.5625C21.7271 26.2501 21.8888 26.2068 22.0313 26.1245C22.1739 26.0423 22.2923 25.9239 22.3746 25.7814C22.4569 25.6389 22.5002 25.4772 22.5002 25.3126C22.5002 25.148 22.4569 24.9863 22.3746 24.8438C21.4653 23.2822 20.0796 22.053 18.4207 21.3364H18.4125Z" fill="#0A0E21"/>
</svg>
