<svg width="110" height="110" viewBox="0 0 110 110" fill="none" xmlns="http://www.w3.org/2000/svg">
<path d="M104.474 56.5211L90.7242 22.1461C90.2694 21.012 89.4266 20.0763 88.3461 19.5057C87.2656 18.9352 86.0176 18.7669 84.8246 19.0309L60.1562 24.4922V17.1875C60.1562 15.82 59.613 14.5085 58.646 13.5415C57.679 12.5745 56.3675 12.0312 55 12.0312C53.6325 12.0312 52.321 12.5745 51.354 13.5415C50.387 14.5085 49.8437 15.82 49.8437 17.1875V26.7996L22.9453 32.7809C22.1264 32.9625 21.3642 33.3411 20.7247 33.884C20.0853 34.4269 19.5879 35.1175 19.2758 35.8961L5.52577 70.2367C5.27738 70.8569 5.15187 71.5194 5.15624 72.1875C5.15624 77.3996 7.8203 81.8254 12.6543 84.6484C16.1416 86.5994 20.0666 87.6342 24.0625 87.6562C28.0584 87.6342 31.9834 86.5994 35.4707 84.6484C40.3047 81.8254 42.9687 77.3996 42.9687 72.1875C42.9687 71.531 42.8433 70.8805 42.5992 70.2711L31.1008 41.5293L49.8437 37.3828V87.6562H44.6875C43.32 87.6562 42.0085 88.1995 41.0415 89.1665C40.0745 90.1335 39.5312 91.445 39.5312 92.8125C39.5312 94.18 40.0745 95.4915 41.0415 96.4585C42.0085 97.4255 43.32 97.9688 44.6875 97.9688H65.3125C66.68 97.9688 67.9915 97.4255 68.9585 96.4585C69.9255 95.4915 70.4687 94.18 70.4687 92.8125C70.4687 91.445 69.9255 90.1335 68.9585 89.1665C67.9915 88.1995 66.68 87.6562 65.3125 87.6562H60.1562V35.0754L77.5242 31.2082L67.4008 56.5168C67.1562 57.1276 67.0307 57.7796 67.0312 58.4375C67.0312 63.6496 69.6953 68.0754 74.5293 70.8984C78.0073 72.8728 81.9382 73.9108 85.9375 73.9108C89.9368 73.9108 93.8677 72.8728 97.3457 70.8984C102.18 68.0754 104.844 63.6496 104.844 58.4375C104.844 57.781 104.718 57.1305 104.474 56.5211ZM24.0625 77.3438C22.4683 77.3438 16.3281 76.5402 15.5504 72.9695L24.0625 51.6957L32.5746 72.9695C31.7969 76.5402 25.6566 77.3438 24.0625 77.3438ZM85.9375 63.5938C84.3433 63.5938 78.2031 62.7902 77.4254 59.2195L85.9375 37.9457L94.4496 59.2195C93.6719 62.7902 87.5316 63.5938 85.9375 63.5938Z" fill="#4E5F79"/>
</svg>
