<svg width="24" height="24" viewBox="0 0 24 24" fill="none" xmlns="http://www.w3.org/2000/svg">
<path d="M22.4466 12.4688L19.4466 4.96875C19.3905 4.83005 19.2941 4.7113 19.17 4.62777C19.0459 4.54424 18.8996 4.49974 18.75 4.5C18.6954 4.50083 18.641 4.50743 18.5878 4.51969L12.75 5.8125V3.75C12.75 3.55109 12.671 3.36032 12.5303 3.21967C12.3897 3.07902 12.1989 3 12 3C11.8011 3 11.6103 3.07902 11.4697 3.21967C11.329 3.36032 11.25 3.55109 11.25 3.75V6.14813L5.08781 7.51969C4.96901 7.54561 4.85829 7.60003 4.7652 7.67826C4.67211 7.75649 4.59943 7.85619 4.55344 7.96875L1.55344 15.4688C1.51755 15.5581 1.4994 15.6537 1.5 15.75C1.5 17.9353 3.80062 18.75 5.25 18.75C6.69937 18.75 9 17.9353 9 15.75C9.0006 15.6537 8.98245 15.5581 8.94656 15.4688L6.27375 8.79094L11.25 7.6875V19.5H9.75C9.55109 19.5 9.36032 19.579 9.21967 19.7197C9.07902 19.8603 9 20.0511 9 20.25C9 20.4489 9.07902 20.6397 9.21967 20.7803C9.36032 20.921 9.55109 21 9.75 21H14.25C14.4489 21 14.6397 20.921 14.7803 20.7803C14.921 20.6397 15 20.4489 15 20.25C15 20.0511 14.921 19.8603 14.7803 19.7197C14.6397 19.579 14.4489 19.5 14.25 19.5H12.75V7.35187L17.5312 6.29062L15.0534 12.4688C15.0175 12.5581 14.9994 12.6537 15 12.75C15 14.9353 17.3006 15.75 18.75 15.75C20.1994 15.75 22.5 14.9353 22.5 12.75C22.5006 12.6537 22.4824 12.5581 22.4466 12.4688ZM7.44656 15.75H3.05812L5.25 10.2694L7.44656 15.75ZM16.5628 12.75L18.75 7.26938L20.9419 12.75H16.5628Z" fill="#F43F5E"/>
</svg>
